# xmcd CD database file
#
# Track frame offsets:
#	150
#	22155
#	38462
#	52848
#	71384
#	89501
#	101936
#	118095
#	136604
#	157515
#	176176
#	192541
#	205498
#
# Disc length: 3030 seconds
#
# Revision: 1
# Processed by: cddbd v1.5.2PL0 Copyright (c) Steve Scherf et al.
# Submitted via: CDex 1.70beta2
#
DISCID=af0bd40d
DTITLE=Aaron Cici - Blues
DYEAR=1994
DGENRE=Jazz+Funk
TTITLE0=Please don't leave me
TTITLE1=Novie
TTITLE2=Hello Baby
TTITLE3=Thank you mother
TTITLE4=My heart
TTITLE5=Wiesbaden
TTITLE6=Don't Cry Baby
TTITLE7=Nobody knows the trouble I've seen
TTITLE8=When the saints go marching in
TTITLE9=This is my love
TTITLE10=Ramona
TTITLE11=Let days speak
TTITLE12=Please don't leave me (2)
EXTD=YEAR: 1994
EXTT0=
EXTT1=
EXTT2=
EXTT3=
EXTT4=
EXTT5=
EXTT6=
EXTT7=
EXTT8=
EXTT9=
EXTT10=
EXTT11=
EXTT12=
PLAYORDER=
